<svg width="25" height="24" viewBox="0 0 25 24" fill="none" xmlns="http://www.w3.org/2000/svg">
<path d="M17.4999 10.9999H9.9099L13.2099 7.70994C13.3982 7.52164 13.504 7.26624 13.504 6.99994C13.504 6.73364 13.3982 6.47825 13.2099 6.28994C13.0216 6.10164 12.7662 5.99585 12.4999 5.99585C12.2336 5.99585 11.9782 6.10164 11.7899 6.28994L6.7899 11.2899C6.69886 11.385 6.62749 11.4972 6.5799 11.6199C6.47988 11.8634 6.47988 12.1365 6.5799 12.3799C6.62749 12.5027 6.69886 12.6148 6.7899 12.7099L11.7899 17.7099C11.8829 17.8037 11.9935 17.8781 12.1153 17.9288C12.2372 17.9796 12.3679 18.0057 12.4999 18.0057C12.6319 18.0057 12.7626 17.9796 12.8845 17.9288C13.0063 17.8781 13.1169 17.8037 13.2099 17.7099C13.3036 17.617 13.378 17.5064 13.4288 17.3845C13.4796 17.2627 13.5057 17.132 13.5057 16.9999C13.5057 16.8679 13.4796 16.7372 13.4288 16.6154C13.378 16.4935 13.3036 16.3829 13.2099 16.2899L9.9099 12.9999H17.4999C17.7651 12.9999 18.0195 12.8946 18.207 12.707C18.3945 12.5195 18.4999 12.2652 18.4999 11.9999C18.4999 11.7347 18.3945 11.4804 18.207 11.2928C18.0195 11.1053 17.7651 10.9999 17.4999 10.9999Z" fill="#194BFB"/>
</svg>
