<svg width="24" height="25" viewBox="0 0 24 25" fill="none" xmlns="http://www.w3.org/2000/svg">
<path fill-rule="evenodd" clip-rule="evenodd" d="M10.3178 2.02497H8.28531C8.15594 2.02497 8.05094 2.12988 8.05094 2.25935V3.04989H4.23438C4.105 3.04989 4 3.15484 4 3.28427V23.7344C4 23.8638 4.105 23.9688 4.23438 23.9688H18.8762C19.0056 23.9688 19.1106 23.8638 19.1106 23.7344V3.28427C19.1106 3.15484 19.0056 3.04989 18.8762 3.04989H15.0597V2.25935C15.0597 2.12988 14.9547 2.02497 14.8253 2.02497H12.7928C12.6831 1.44175 12.1703 1 11.5553 1C10.9403 1 10.4275 1.44175 10.3178 2.02497ZM15.0597 3.51864V4.06516C15.0597 4.19463 14.9547 4.29953 14.8253 4.29953H8.28531C8.15594 4.29953 8.05094 4.19463 8.05094 4.06516V3.51864H4.46875V23.5H18.6419V3.51864H15.0597ZM17.3678 18.1968C17.3678 18.0674 17.2628 17.9625 17.1334 17.9625H15.2584C15.1291 17.9625 15.0241 18.0674 15.0241 18.1968V20.0718C15.0241 20.2013 15.1291 20.3062 15.2584 20.3062H17.1334C17.2628 20.3062 17.3678 20.2013 17.3678 20.0718V18.1968ZM16.8991 18.4312V19.8374L15.4928 19.8375V18.4312H16.8991ZM5.97719 19.3687H11.5553C11.6847 19.3687 11.7897 19.2637 11.7897 19.1343C11.7897 19.005 11.6847 18.9 11.5553 18.9H5.97719C5.84782 18.9 5.74282 19.005 5.74282 19.1343C5.74282 19.2637 5.84782 19.3687 5.97719 19.3687ZM17.3678 14.4468C17.3678 14.3174 17.2628 14.2125 17.1334 14.2125H15.2584C15.1291 14.2125 15.0241 14.3174 15.0241 14.4468V16.3218C15.0241 16.4513 15.1291 16.5562 15.2584 16.5562H17.1334C17.2628 16.5562 17.3678 16.4513 17.3678 16.3218V14.4468ZM16.8991 14.6812V16.0874L15.4928 16.0875V14.6812H16.8991ZM5.97719 15.6187H11.5553C11.6847 15.6187 11.7897 15.5137 11.7897 15.3843C11.7897 15.255 11.6847 15.15 11.5553 15.15H5.97719C5.84782 15.15 5.74282 15.255 5.74282 15.3843C5.74282 15.5137 5.84782 15.6187 5.97719 15.6187ZM17.3678 10.6968C17.3678 10.5674 17.2628 10.4625 17.1334 10.4625H15.2584C15.1291 10.4625 15.0241 10.5674 15.0241 10.6968V12.5718C15.0241 12.7013 15.1291 12.8062 15.2584 12.8062H17.1334C17.2628 12.8062 17.3678 12.7013 17.3678 12.5718V10.6968ZM16.8991 10.9312V12.3374L15.4928 12.3375V10.9312H16.8991ZM5.97719 11.8687H11.5553C11.6847 11.8687 11.7897 11.7637 11.7897 11.6343C11.7897 11.505 11.6847 11.4 11.5553 11.4H5.97719C5.84782 11.4 5.74282 11.505 5.74282 11.6343C5.74282 11.7637 5.84782 11.8687 5.97719 11.8687ZM17.3678 6.94685C17.3678 6.81738 17.2628 6.71247 17.1334 6.71247H15.2584C15.1291 6.71247 15.0241 6.81738 15.0241 6.94685V8.82185C15.0241 8.95127 15.1291 9.05622 15.2584 9.05622H17.1334C17.2628 9.05622 17.3678 8.95127 17.3678 8.82185V6.94685ZM16.8991 7.18122V8.58742L15.4928 8.58747V7.18122H16.8991ZM5.97719 8.11872H11.5553C11.6847 8.11872 11.7897 8.01367 11.7897 7.88435C11.7897 7.75497 11.6847 7.64997 11.5553 7.64997H5.97719C5.84782 7.64997 5.74282 7.75497 5.74282 7.88435C5.74282 8.01367 5.84782 8.11872 5.97719 8.11872ZM8.51969 3.28431V2.49372H14.5909V3.83078H8.51969V3.28431ZM12.3105 2.02497C12.2106 1.70289 11.9102 1.46875 11.5553 1.46875C11.2005 1.46875 10.9 1.70289 10.8002 2.02497H12.3105Z" fill="#646464"/>
</svg>
