<svg width="24" height="25" viewBox="0 0 24 25" fill="none" xmlns="http://www.w3.org/2000/svg">
<path d="M17 10.4013H19C21 10.4013 22 9.40131 22 7.40131V5.40131C22 3.40131 21 2.40131 19 2.40131H17C15 2.40131 14 3.40131 14 5.40131V7.40131C14 9.40131 15 10.4013 17 10.4013Z" fill="#D8DFE8" stroke="#D8DFE8" stroke-width="1.5" stroke-miterlimit="10" stroke-linecap="round" stroke-linejoin="round"/>
<path d="M5 22.4013H7C9 22.4013 10 21.4013 10 19.4013V17.4013C10 15.4013 9 14.4013 7 14.4013H5C3 14.4013 2 15.4013 2 17.4013V19.4013C2 21.4013 3 22.4013 5 22.4013Z" fill="#D8DFE8" stroke="#D8DFE8" stroke-width="1.5" stroke-miterlimit="10" stroke-linecap="round" stroke-linejoin="round"/>
<path d="M6 10.4013C8.20914 10.4013 10 8.61045 10 6.40131C10 4.19217 8.20914 2.40131 6 2.40131C3.79086 2.40131 2 4.19217 2 6.40131C2 8.61045 3.79086 10.4013 6 10.4013Z" fill="#194BFB" stroke="#194BFB" stroke-width="1.5" stroke-miterlimit="10" stroke-linecap="round" stroke-linejoin="round"/>
<path d="M18 22.4013C20.2091 22.4013 22 20.6104 22 18.4013C22 16.1922 20.2091 14.4013 18 14.4013C15.7909 14.4013 14 16.1922 14 18.4013C14 20.6104 15.7909 22.4013 18 22.4013Z" fill="#194BFB" stroke="#194BFB" stroke-width="1.5" stroke-miterlimit="10" stroke-linecap="round" stroke-linejoin="round"/>
</svg>
