<svg width="24" height="25" viewBox="0 0 24 25" fill="none" xmlns="http://www.w3.org/2000/svg">
<path fill-rule="evenodd" clip-rule="evenodd" d="M5.52455 5.30383V6.18222H4.63805V5.30383H5.52455ZM5.52455 7.70809V8.58648H4.63805V7.70809H5.52455ZM5.52455 10.1123V10.9907H4.63805V10.1123H5.52455ZM5.52455 12.5166V13.395H4.63805V12.5166H5.52455ZM7.653 5.30383V6.18222H6.7665V5.30383H7.653ZM7.653 7.70809V8.58648H6.7665V7.70809H7.653ZM7.653 10.1123V10.9907H6.7665V10.1123H7.653ZM7.653 12.5166V13.395H6.7665V12.5166H7.653ZM22.3634 21.6123H1.6365V22.5951H22.3635V21.6123H22.3634ZM18.4062 20.7258H20.8208V8.15172L18.4062 6.92406V20.7258V20.7258ZM11.954 20.7258H17.5197V6.64511H12.8864H12.8844H11.954V20.7258ZM9.85702 20.7258V2.48458L12.4431 3.79511V5.75856H11.5107C11.2659 5.75856 11.0675 5.95703 11.0675 6.20181V20.7257L9.85702 20.7258ZM1.19325 20.7258C0.948469 20.7258 0.75 20.9243 0.75 21.169V23.0383C0.75 23.2831 0.948469 23.4816 1.19325 23.4816H22.8067C23.0515 23.4816 23.25 23.2831 23.25 23.0383V21.169C23.25 20.9243 23.0515 20.7258 22.8067 20.7258H21.7074V7.88017H21.7072C21.707 7.71892 21.6186 7.56353 21.465 7.48539L18.1793 5.8149C18.1154 5.77904 18.0416 5.75856 17.963 5.75856H13.3297V3.52408H13.3287C13.3285 3.36259 13.2396 3.20701 13.0856 3.12929L9.64214 1.38428C9.57548 1.34415 9.49739 1.32104 9.41386 1.32104H2.96156C2.71678 1.32104 2.51831 1.51951 2.51831 1.76429V20.7257L1.19325 20.7258ZM6.77869 20.7258H5.59664V18.6165H6.77869V20.7258ZM4.71014 20.7258V18.1732C4.71014 17.9284 4.90861 17.73 5.15339 17.73H7.22194C7.46672 17.73 7.66519 17.9284 7.66519 18.1732V20.7258H8.97052V2.20754H3.40481V20.7257L4.71014 20.7258ZM5.52455 14.9208V15.7992H4.63805V14.9208H5.52455ZM7.653 14.9208V15.7992H6.7665V14.9208H7.653ZM14.1697 9.74476V10.6231H13.2832V9.74476H14.1697ZM14.1697 12.149V13.0274H13.2832V12.149H14.1697ZM14.1697 14.5532V15.4316H13.2832V14.5532H14.1697ZM16.2981 9.74476V10.6231H15.4116V9.74476H16.2981ZM16.2981 12.149V13.0274H15.4116V12.149H16.2981ZM16.2981 14.5532V15.4316H15.4116V14.5532H16.2981ZM14.1697 16.9576V17.8359H13.2832V16.9576H14.1697ZM16.2981 16.9576V17.8359H15.4116V16.9576H16.2981Z" fill="#646464"/>
</svg>
