<svg width="24" height="25" viewBox="0 0 24 25" fill="none" xmlns="http://www.w3.org/2000/svg">
<path d="M18.4799 7.2413H5.51993C5.06393 7.2413 4.67993 7.6253 4.67993 8.0813V16.7213C4.67993 17.1773 5.06393 17.5613 5.51993 17.5613H18.4799C18.9359 17.5613 19.3199 17.1773 19.3199 16.7213V8.0813C19.3199 7.6253 18.9359 7.2413 18.4799 7.2413ZM5.51993 7.9613H18.4799C18.5519 7.9613 18.5999 8.0093 18.5999 8.0813V9.1613H5.39993V8.0813C5.39993 8.0093 5.44793 7.9613 5.51993 7.9613ZM5.39993 16.7213V9.8813H10.1999V16.8413H5.51993C5.44793 16.8413 5.39993 16.7933 5.39993 16.7213ZM18.4799 16.8413H10.9199V9.8813H18.5999V16.7213C18.5999 16.7933 18.5519 16.8413 18.4799 16.8413Z" fill="#646464"/>
<path d="M9.24003 12.8333V12.7133C9.24003 11.9453 8.61603 11.3453 7.87203 11.3453H7.75203C6.98403 11.3453 6.38403 11.9693 6.38403 12.7133V12.8333C6.38403 13.2413 6.55203 13.6013 6.84003 13.8413C6.55203 14.1053 6.38403 14.4653 6.38403 14.8493C6.38403 15.0413 6.55203 15.2093 6.74403 15.2093C6.93603 15.2093 7.10403 15.0413 7.10403 14.8493C7.10403 14.4893 7.39203 14.2013 7.75203 14.2013H7.87203C8.23203 14.2013 8.52003 14.4893 8.52003 14.8493C8.52003 15.0413 8.68803 15.2093 8.88003 15.2093C9.07203 15.2093 9.24003 15.0413 9.24003 14.8493C9.24003 14.4413 9.07203 14.0813 8.78403 13.8413C9.07203 13.5773 9.24003 13.2173 9.24003 12.8333ZM7.72803 13.4813C7.36803 13.4813 7.08003 13.1933 7.08003 12.8333V12.7133C7.08003 12.3533 7.36803 12.0653 7.72803 12.0653H7.84803C8.20803 12.0653 8.49603 12.3533 8.49603 12.7133V12.8333C8.49603 13.1933 8.20803 13.4813 7.84803 13.4813H7.72803ZM17.52 10.6013H12C11.808 10.6013 11.64 10.7693 11.64 10.9613C11.64 11.1533 11.808 11.3213 12 11.3213H17.52C17.712 11.3213 17.88 11.1533 17.88 10.9613C17.88 10.7693 17.712 10.6013 17.52 10.6013ZM17.52 12.2093H12C11.808 12.2093 11.64 12.3773 11.64 12.5693C11.64 12.7613 11.808 12.9293 12 12.9293H17.52C17.712 12.9293 17.88 12.7613 17.88 12.5693C17.88 12.3773 17.712 12.2093 17.52 12.2093ZM17.52 13.7933H12C11.808 13.7933 11.64 13.9613 11.64 14.1533C11.64 14.3453 11.808 14.5133 12 14.5133H17.52C17.712 14.5133 17.88 14.3453 17.88 14.1533C17.88 13.9613 17.712 13.7933 17.52 13.7933ZM17.52 15.4013H12C11.808 15.4013 11.64 15.5693 11.64 15.7613C11.64 15.9533 11.808 16.1213 12 16.1213H17.52C17.712 16.1213 17.88 15.9533 17.88 15.7613C17.88 15.5693 17.712 15.4013 17.52 15.4013Z" fill="#646464"/>
</svg>
