<svg width="24" height="25" viewBox="0 0 24 25" fill="none" xmlns="http://www.w3.org/2000/svg">
<path d="M8 12.6013H15" stroke="#646464" stroke-width="1.5" stroke-miterlimit="10" stroke-linecap="round" stroke-linejoin="round"/>
<path d="M8 16.6013H12.38" stroke="#646464" stroke-width="1.5" stroke-miterlimit="10" stroke-linecap="round" stroke-linejoin="round"/>
<path d="M10 6.40131H14C16 6.40131 16 5.40131 16 4.40131C16 2.40131 15 2.40131 14 2.40131H10C9 2.40131 8 2.40131 8 4.40131C8 6.40131 9 6.40131 10 6.40131Z" stroke="#646464" stroke-width="1.5" stroke-miterlimit="10" stroke-linecap="round" stroke-linejoin="round"/>
<path d="M16 4.42131C19.33 4.60131 21 5.83131 21 10.4013V16.4013C21 20.4013 20 22.4013 15 22.4013H9C4 22.4013 3 20.4013 3 16.4013V10.4013C3 5.84131 4.67 4.60131 8 4.42131" stroke="#646464" stroke-width="1.5" stroke-miterlimit="10" stroke-linecap="round" stroke-linejoin="round"/>
</svg>
