<svg width="74" height="74" viewBox="0 0 74 74" fill="none" xmlns="http://www.w3.org/2000/svg">
<circle cx="37" cy="37" r="37" fill="#0968E5" fill-opacity="0.05"/>
<circle cx="37.5" cy="37.5" r="26.5" fill="#0968E5"/>
<path d="M40.9204 31.8256C41.8692 32.2269 42.7467 32.7541 43.5426 33.3969V28.8531C43.5426 25.0745 40.468 22 36.6895 22H36.5841C32.8089 22 29.7344 25.0745 29.7344 28.8531V33.3969C30.5302 32.7541 31.4077 32.227 32.3566 31.8256C32.6117 31.7168 32.8735 31.6181 33.1354 31.5297V28.8531C33.1354 26.9485 34.6829 25.401 36.5875 25.401H36.6929C38.5975 25.401 40.145 26.9485 40.145 28.8531V31.5331C40.4034 31.6181 40.6653 31.7168 40.9204 31.8256Z" fill="white"/>
<path d="M27 41.9603C27 47.2829 31.3159 51.5988 36.6385 51.5988C41.9612 51.5988 46.2771 47.2863 46.2771 41.9603C46.2771 39.3449 45.233 36.971 43.5427 35.233C42.5904 34.257 41.434 33.4815 40.1416 32.9748C39.0567 32.5496 37.8731 32.3184 36.6386 32.3184C35.404 32.3184 34.2204 32.5496 33.1355 32.9748C31.8431 33.4781 30.6868 34.2535 29.7345 35.233C28.0407 36.971 27 39.3449 27 41.9603ZM34.1557 40.0149C34.1898 38.6987 35.2611 37.6274 36.5773 37.5967C37.9751 37.5627 39.1213 38.6885 39.1213 40.0795C39.1213 40.2258 39.1077 40.3686 39.0839 40.5046C38.9613 41.2086 38.5431 41.814 37.958 42.1814C37.7166 42.3344 37.5942 42.6201 37.6554 42.8956L38.3935 46.3953C38.4377 46.6061 38.2778 46.8068 38.0601 46.8068H35.2169C34.9992 46.8068 34.8394 46.6095 34.8836 46.3953L35.6216 42.8956C35.6794 42.6167 35.5604 42.331 35.3189 42.1779C34.734 41.8106 34.3156 41.2086 34.1932 40.5012C34.166 40.3448 34.1524 40.1816 34.1557 40.0149Z" fill="white"/>
</svg>
