<svg width="18" height="20" viewBox="0 0 18 20" fill="none" xmlns="http://www.w3.org/2000/svg">
<path d="M3.91701 18.942L4.14877 18.2287L3.91701 18.942ZM0.974324 15.9993L1.68762 15.7676L0.974324 15.9993ZM17.0257 15.9993L16.3124 15.7676L17.0257 15.9993ZM14.083 18.942L13.8512 18.2287L14.083 18.942ZM14.083 6.55733L13.8512 7.27062L14.083 6.55733ZM17.0257 9.50001L16.3124 9.73178L17.0257 9.50001ZM3.91701 6.55733L4.14877 7.27062L3.91701 6.55733ZM0.974324 9.50001L1.68762 9.73178L0.974324 9.50001ZM9.75 10.9163C9.75 10.5021 9.41421 10.1663 9 10.1663C8.58579 10.1663 8.25 10.5021 8.25 10.9163H9.75ZM8.25 14.583C8.25 14.9972 8.58579 15.333 9 15.333C9.41421 15.333 9.75 14.9972 9.75 14.583H8.25ZM7.16667 7.08301H10.8333V5.58301H7.16667V7.08301ZM10.8333 18.4163H7.16667V19.9163H10.8333V18.4163ZM7.16667 18.4163C5.40212 18.4163 4.69772 18.4071 4.14877 18.2287L3.68524 19.6553C4.51709 19.9256 5.51887 19.9163 7.16667 19.9163V18.4163ZM0 12.7497C0 14.3975 -0.00925303 15.3992 0.261032 16.2311L1.68762 15.7676C1.50925 15.2186 1.5 14.5142 1.5 12.7497H0ZM4.14877 18.2287C2.98176 17.8495 2.0668 16.9346 1.68762 15.7676L0.261032 16.2311C0.788594 17.8548 2.06157 19.1277 3.68524 19.6553L4.14877 18.2287ZM16.5 12.7497C16.5 14.5142 16.4907 15.2186 16.3124 15.7676L17.739 16.2311C18.0093 15.3992 18 14.3975 18 12.7497H16.5ZM10.8333 19.9163C12.4811 19.9163 13.4829 19.9256 14.3148 19.6553L13.8512 18.2287C13.3023 18.4071 12.5979 18.4163 10.8333 18.4163V19.9163ZM16.3124 15.7676C15.9332 16.9346 15.0182 17.8495 13.8512 18.2287L14.3148 19.6553C15.9384 19.1277 17.2114 17.8548 17.739 16.2311L16.3124 15.7676ZM18 12.7497C18 11.1019 18.0093 10.1001 17.739 9.26825L16.3124 9.73178C16.4907 10.2807 16.5 10.9851 16.5 12.7497H18ZM13.8512 7.27062C15.0182 7.64981 15.9332 8.56476 16.3124 9.73178L17.739 9.26825C17.2114 7.64458 15.9384 6.3716 14.3148 5.84404L13.8512 7.27062ZM1.5 12.7497C1.5 10.9851 1.50925 10.2807 1.68762 9.73178L0.261032 9.26825C-0.00925303 10.1001 0 11.1019 0 12.7497H1.5ZM3.68524 5.84404C2.06157 6.3716 0.788594 7.64458 0.261032 9.26825L1.68762 9.73178C2.0668 8.56476 2.98176 7.64981 4.14877 7.27062L3.68524 5.84404ZM12.8333 5.41634V6.33301H14.3333V5.41634H12.8333ZM5.16667 6.33301V5.41634H3.66667V6.33301H5.16667ZM9 1.58301C11.1171 1.58301 12.8333 3.29925 12.8333 5.41634H14.3333C14.3333 2.47082 11.9455 0.0830078 9 0.0830078V1.58301ZM9 0.0830078C6.05448 0.0830078 3.66667 2.47082 3.66667 5.41634H5.16667C5.16667 3.29925 6.88291 1.58301 9 1.58301V0.0830078ZM8.25 10.9163V14.583H9.75V10.9163H8.25ZM7.16667 5.58301C5.87533 5.58301 4.98821 5.58039 4.29207 5.69767L4.54126 7.17683C5.08261 7.08562 5.81495 7.08301 7.16667 7.08301V5.58301ZM4.29207 5.69767C4.08075 5.73327 3.88052 5.78059 3.68524 5.84404L4.14877 7.27062C4.26479 7.23293 4.39239 7.20191 4.54126 7.17683L4.29207 5.69767ZM3.66667 6.33301V6.43725H5.16667V6.33301H3.66667ZM10.8333 7.08301C12.185 7.08301 12.9174 7.08562 13.4587 7.17683L13.7079 5.69767C13.0118 5.58039 12.1247 5.58301 10.8333 5.58301V7.08301ZM13.4587 7.17683C13.6076 7.20191 13.7352 7.23293 13.8512 7.27062L14.3148 5.84404C14.1195 5.78059 13.9192 5.73327 13.7079 5.69767L13.4587 7.17683ZM12.8333 6.33301V6.43725H14.3333V6.33301H12.8333Z" fill="#0968E5"/>
</svg>
