<svg width="20" height="16" viewBox="0 0 20 16" fill="none" xmlns="http://www.w3.org/2000/svg">
<path d="M9.99935 9.74967C9.58513 9.74967 9.24935 10.0855 9.24935 10.4997C9.24935 10.9139 9.58513 11.2497 9.99935 11.2497V9.74967ZM13.2493 7.99968C13.2493 7.58546 12.9136 7.24968 12.4993 7.24968C12.0851 7.24968 11.7493 7.58546 11.7493 7.99968H13.2493ZM2.68324 6.43751L2.07398 6.00012L2.68324 6.43751ZM2.68306 9.56159L3.29232 9.12421L3.29232 9.12421L2.68306 9.56159ZM4.82266 12.077L5.3856 11.5814L5.3666 11.5599L5.34599 11.5398L4.82266 12.077ZM15.0835 3.83301L14.5649 4.37475L14.5862 4.39514L14.609 4.4138L15.0835 3.83301ZM1.94678 7.99965L1.19678 7.99965L1.94678 7.99965ZM17.3155 9.56184L17.9247 9.99923V9.99923L17.3155 9.56184ZM17.3154 6.43744L16.7062 6.87483L16.7062 6.87483L17.3154 6.43744ZM17.0923 4.91287C16.8301 4.59215 16.3576 4.54463 16.0369 4.80675C15.7162 5.06887 15.6687 5.54136 15.9308 5.86209L17.0923 4.91287ZM6.68688 12.675C6.35046 12.4333 5.88184 12.5102 5.6402 12.8466C5.39856 13.183 5.47539 13.6516 5.81182 13.8933L6.68688 12.675ZM18.0519 7.99967L17.3019 7.99967L18.0519 7.99967ZM1.19749 14.0807C0.874048 14.3394 0.821607 14.8114 1.08036 15.1349C1.33912 15.4583 1.81109 15.5107 2.13454 15.252L1.19749 14.0807ZM18.8012 1.91866C19.1246 1.6599 19.1771 1.18793 18.9183 0.864486C18.6596 0.54104 18.1876 0.488599 17.8642 0.747356L18.8012 1.91866ZM15.145 3.88319L15.6135 4.46884L15.145 3.88319ZM4.85572 12.1146L5.32424 12.7002L4.85572 12.1146ZM9.99935 4.74968C8.20442 4.74968 6.74935 6.20475 6.74935 7.99968H8.24935C8.24935 7.03318 9.03285 6.24968 9.99935 6.24968V4.74968ZM6.74935 7.99968C6.74935 8.76294 7.01339 9.4666 7.45455 10.0213L8.62857 9.08771C8.39088 8.78882 8.24935 8.41181 8.24935 7.99968H6.74935ZM12.5364 5.96826C11.942 5.22668 11.0261 4.74968 9.99935 4.74968V6.24968C10.5517 6.24968 11.044 6.50471 11.3659 6.90638L12.5364 5.96826ZM9.99935 11.2497C11.7943 11.2497 13.2493 9.7946 13.2493 7.99968H11.7493C11.7493 8.96617 10.9658 9.74967 9.99935 9.74967V11.2497ZM9.99935 0.583008C8.17395 0.583008 6.53323 1.4853 5.21327 2.56605C3.88472 3.65384 2.80073 4.9878 2.07398 6.00012L3.2925 6.87489C3.98031 5.9168 4.97657 4.69851 6.16354 3.72665C7.35908 2.74776 8.66914 2.08301 9.99935 2.08301V0.583008ZM2.07379 9.99896C2.62812 10.7711 3.38655 11.7251 4.29933 12.6143L5.34599 11.5398C4.51509 10.7304 3.81336 9.85002 3.29232 9.12421L2.07379 9.99896ZM15.6022 3.29127C14.1512 1.90199 12.2073 0.583008 9.99935 0.583008V2.08301C11.6194 2.08301 13.2021 3.07003 14.5649 4.37475L15.6022 3.29127ZM2.07398 6.00012C1.6178 6.63556 1.19679 7.17831 1.19678 7.99965L2.69678 7.99966C2.69678 7.7484 2.76674 7.60725 3.2925 6.87489L2.07398 6.00012ZM3.29232 9.12421C2.7667 8.39202 2.69678 8.25093 2.69678 7.99966L1.19678 7.99965C1.19677 8.82097 1.61771 9.36364 2.07379 9.99896L3.29232 9.12421ZM9.99935 15.4163C11.8247 15.4163 13.4655 14.5141 14.7854 13.4333C16.114 12.3455 17.198 11.0116 17.9247 9.99923L16.7062 9.12446C16.0184 10.0825 15.0221 11.3008 13.8352 12.2727C12.6396 13.2516 11.3296 13.9163 9.99935 13.9163V15.4163ZM17.9247 6.00005C17.6836 5.6643 17.4048 5.2953 17.0923 4.91287L15.9308 5.86209C16.221 6.21721 16.4809 6.56101 16.7062 6.87483L17.9247 6.00005ZM5.81182 13.8933C7.01092 14.7545 8.4367 15.4163 9.99935 15.4163V13.9163C8.86431 13.9163 7.7421 13.4329 6.68688 12.675L5.81182 13.8933ZM17.9247 9.99923C18.3809 9.36378 18.8019 8.82101 18.8019 7.99967L17.3019 7.99967C17.3019 8.25093 17.232 8.39208 16.7062 9.12446L17.9247 9.99923ZM16.7062 6.87483C17.232 7.60725 17.3019 7.74841 17.3019 7.99967L18.8019 7.99967C18.8019 7.17832 18.3809 6.63553 17.9247 6.00005L16.7062 6.87483ZM15.6135 4.46884L18.8012 1.91866L17.8642 0.747356L14.6764 3.29753L15.6135 4.46884ZM14.609 4.4138L14.6704 4.46398L15.6195 3.30239L15.5581 3.25222L14.609 4.4138ZM2.13454 15.252L5.32424 12.7002L4.3872 11.5289L1.19749 14.0807L2.13454 15.252ZM5.32424 12.7002L15.6135 4.46884L14.6764 3.29753L4.3872 11.5289L5.32424 12.7002ZM4.25972 12.5726L4.29278 12.6102L5.41867 11.619L5.3856 11.5814L4.25972 12.5726Z" fill="#919191"/>
</svg>
