<svg width="35" height="36" viewBox="0 0 35 36" fill="none" xmlns="http://www.w3.org/2000/svg">
<path d="M17.5 9.50293V14.3592" stroke="#3A3A3A" stroke-width="1.5" stroke-miterlimit="10" stroke-linecap="round"/>
<path d="M17.5306 3.02832C12.1639 3.02832 7.8181 7.37415 7.8181 12.7408V15.8033C7.8181 16.795 7.40977 18.2825 6.89935 19.1283L5.04727 22.22C3.90977 24.1304 4.69727 26.2596 6.79727 26.9596C13.7681 29.2783 21.3077 29.2783 28.2785 26.9596C30.2473 26.3033 31.0931 23.9992 30.0285 22.22L28.1764 19.1283C27.666 18.2825 27.2577 16.7804 27.2577 15.8033V12.7408C27.2431 7.40332 22.8681 3.02832 17.5306 3.02832Z" stroke="#3A3A3A" stroke-width="1.5" stroke-miterlimit="10" stroke-linecap="round"/>
<path d="M22.3563 27.5576C22.3563 30.2264 20.1688 32.4139 17.5 32.4139C16.173 32.4139 14.948 31.8597 14.073 30.9847C13.198 30.1097 12.6438 28.8847 12.6438 27.5576" stroke="#3A3A3A" stroke-width="1.5" stroke-miterlimit="10"/>
</svg>
