<svg width="24" height="25" viewBox="0 0 24 25" fill="none" xmlns="http://www.w3.org/2000/svg">
<path d="M13.5 4.15131V1.15131H10.5V4.15131H4.5V23.6513H19.5V4.15131H13.5ZM12 1.90131C12.0985 1.90133 12.1961 1.92076 12.2871 1.95848C12.3781 1.99621 12.4608 2.05148 12.5304 2.12116C12.6001 2.19084 12.6553 2.27356 12.693 2.36458C12.7306 2.45561 12.75 2.55317 12.75 2.65168C12.75 2.7502 12.7305 2.84774 12.6928 2.93875C12.6551 3.02976 12.5998 3.11244 12.5301 3.18209C12.4605 3.25173 12.3777 3.30697 12.2867 3.34465C12.1957 3.38233 12.0981 3.40171 11.9996 3.40168C11.8007 3.40163 11.6099 3.32255 11.4692 3.18182C11.3286 3.0411 11.2496 2.85027 11.2496 2.65131C11.2497 2.45234 11.3288 2.26155 11.4695 2.1209C11.6102 1.98025 11.801 1.90126 12 1.90131ZM18.75 22.9013H5.25V4.90131H10.5V7.15131H13.5V4.90131H18.75V22.9013Z" fill="#646464"/>
<path d="M12 8.65131C9.92887 8.65131 8.25 10.3302 8.25 12.4013C8.25 14.4724 9.92887 16.1513 12 16.1513C14.0711 16.1513 15.75 14.4724 15.75 12.4013C15.75 10.3302 14.0711 8.65131 12 8.65131ZM12 15.4013C10.3459 15.4013 9 14.0554 9 12.4013C9 10.7472 10.3459 9.40131 12 9.40131C13.6541 9.40131 15 10.7472 15 12.4013C15 14.0554 13.6541 15.4013 12 15.4013ZM9 17.6513C8.60218 17.6513 8.22064 17.8093 7.93934 18.0906C7.65804 18.372 7.5 18.7535 7.5 19.1513V20.6513H16.5V19.1513C16.5 18.7535 16.342 18.372 16.0607 18.0906C15.7794 17.8093 15.3978 17.6513 15 17.6513H9Z" fill="#646464"/>
</svg>
