<svg width="24" height="25" viewBox="0 0 24 25" fill="none" xmlns="http://www.w3.org/2000/svg">
<path d="M9 4.15131H15C15.0995 4.15131 15.1948 4.1118 15.2652 4.04147C15.3355 3.97114 15.375 3.87576 15.375 3.77631C15.375 3.67685 15.3355 3.58147 15.2652 3.51114C15.1948 3.44082 15.0995 3.40131 15 3.40131H9C8.90054 3.40131 8.80516 3.44082 8.73483 3.51114C8.66451 3.58147 8.625 3.67685 8.625 3.77631C8.625 3.87576 8.66451 3.97114 8.73483 4.04147C8.80516 4.1118 8.90054 4.15131 9 4.15131Z" fill="#646464"/>
<path d="M21.375 23H19.5V6.5C19.9136 6.5 20.25 6.16363 20.25 5.75V2.75C20.25 2.33637 19.9136 2 19.5 2H5.25C4.83637 2 4.5 2.33637 4.5 2.75V5.75C4.5 6.16363 4.83637 6.5 5.25 6.5V23H3.375C3.27554 23 3.18016 23.0395 3.10984 23.1098C3.03951 23.1802 3 23.2755 3 23.375C3 23.4745 3.03951 23.5698 3.10984 23.6402C3.18016 23.7105 3.27554 23.75 3.375 23.75H21.375C21.4745 23.75 21.5698 23.7105 21.6402 23.6402C21.7105 23.5698 21.75 23.4745 21.75 23.375C21.75 23.2755 21.7105 23.1802 21.6402 23.1098C21.5698 23.0395 21.4745 23 21.375 23ZM5.25 2.75H19.5V5.75H5.25V2.75ZM7.5 9.5H17.25V23H7.5V9.5ZM14.25 8.75H10.5V8.375C10.5 8.168 10.6684 8 10.875 8H13.875C14.0816 8 14.25 8.168 14.25 8.375V8.75ZM17.25 8.75H15V8.375C15 7.75475 14.4952 7.25 13.875 7.25H10.875C10.2547 7.25 9.75 7.75475 9.75 8.375V8.75H7.5V6.5H17.25V8.75ZM6 23V6.5H6.75V23H6ZM18 23V6.5H18.75V23H18Z" fill="#646464"/>
</svg>
