<svg width="24" height="25" viewBox="0 0 24 25" fill="none" xmlns="http://www.w3.org/2000/svg">
<g clip-path="url(#clip0_919_124)">
<path d="M17.5424 17.9387C17.7664 18.1627 17.9905 18.3868 18.2213 18.6176C16.3345 20.2184 14.2367 21.3332 11.6876 21.248C9.59563 21.0746 7.97201 20.3749 6.25701 19.2115C6.26576 19.3463 6.27451 19.481 6.28353 19.6199C6.25701 20.0601 6.25701 20.0601 6.06609 20.2404C5.83275 20.3146 5.83275 20.3146 5.49334 20.3146C5.1364 19.9399 5.20125 19.4417 5.20696 18.957C5.20548 18.8316 5.20548 18.8316 5.20397 18.7037C5.20533 18.3699 5.22123 18.0741 5.33125 17.7574C5.56985 17.5247 5.75317 17.5395 6.082 17.5304C6.19521 17.527 6.30842 17.5236 6.42506 17.5201C6.53761 17.5182 6.65017 17.5164 6.76613 17.5145C6.86556 17.5082 6.96498 17.502 7.06742 17.4956C7.33888 17.4827 7.33888 17.4827 7.78436 17.5145C8.00836 17.793 8.03892 17.9139 8.03892 18.2781C7.75026 18.5008 7.55853 18.5439 7.19039 18.6176C9.16475 19.8849 11.1785 20.5216 13.5302 20.0677C15.1153 19.6909 16.2961 18.9506 17.5424 17.9387Z" fill="#646464"/>
<path d="M18.4758 4.44715C18.6753 4.92187 18.6826 5.39316 18.6879 5.90025C18.6932 6.02609 18.6932 6.02609 18.6985 6.15448C18.7025 6.52249 18.6977 6.75962 18.4592 7.04908C17.9731 7.21978 17.5123 7.19804 17.0015 7.18365C16.8471 7.18135 16.8471 7.18135 16.6896 7.17901C16.4364 7.17502 16.1833 7.16894 15.9302 7.16244C15.9022 6.91043 15.8742 6.65841 15.8453 6.39876C16.2024 6.26274 16.4833 6.22054 16.8636 6.22906C15.1815 4.94523 13.2702 4.29416 11.1493 4.47565C9.23593 4.74853 7.81516 5.542 6.34182 6.73817C6.11781 6.51416 5.8938 6.29015 5.663 6.05935C7.06358 4.87107 8.47595 3.90791 10.3299 3.59862C10.4595 3.57685 10.5891 3.55509 10.7227 3.53266C13.3051 3.18711 15.5156 4.03296 17.6272 5.46538C17.6272 5.18537 17.6272 4.90535 17.6272 4.61685C17.9344 4.50517 18.1445 4.44715 18.4758 4.44715Z" fill="#646464"/>
<path d="M22.109 12.4458C22.862 13.2329 23.1342 13.9887 23.159 15.0708C22.7824 15.3219 22.6953 15.3409 22.2663 15.3418C22.159 15.3426 22.0517 15.3433 21.9411 15.3441C21.8256 15.3436 21.7101 15.3431 21.5911 15.3426C21.4129 15.343 21.4129 15.343 21.2311 15.3433C20.9801 15.3435 20.729 15.343 20.4779 15.342C20.0926 15.3408 19.7074 15.342 19.3221 15.3436C19.0784 15.3434 18.8348 15.3431 18.5911 15.3426C18.4175 15.3434 18.4175 15.3434 18.2403 15.3441C18.1334 15.3433 18.0265 15.3426 17.9163 15.3418C17.822 15.3416 17.7277 15.3414 17.6305 15.3412C17.399 15.3108 17.399 15.3108 17.159 15.0708C17.072 14.2 17.3074 13.5019 17.8415 12.8208C18.9858 11.571 20.749 11.5565 22.109 12.4458Z" fill="#646464"/>
<path d="M20.7591 8.95076C21.1804 9.26212 21.3325 9.45923 21.4791 9.96326C21.4791 10.4615 21.3989 10.7005 21.1191 11.1108C20.7938 11.3745 20.5804 11.4616 20.1666 11.5233C19.6956 11.456 19.4454 11.2904 19.0791 10.9908C18.7968 10.6058 18.7829 10.2592 18.8391 9.79076C19.0477 9.38904 19.2105 9.13826 19.5966 8.89826C20.0318 8.80718 20.329 8.83555 20.7591 8.95076Z" fill="#646464"/>
<path d="M5.90223 12.301C6.61072 12.8011 7.04961 13.4396 7.2452 14.2866C7.2752 14.7591 7.2752 14.7591 7.2452 15.1266C7.1252 15.2466 7.1252 15.2466 6.8921 15.261C6.79004 15.2608 6.68798 15.2605 6.58283 15.2602C6.40986 15.2602 6.40986 15.2602 6.2334 15.2602C6.10803 15.2596 5.98266 15.259 5.85348 15.2583C5.7258 15.2581 5.59812 15.258 5.46658 15.2578C5.05695 15.2571 4.64733 15.2556 4.2377 15.2541C3.96075 15.2535 3.6838 15.253 3.40684 15.2525C2.72629 15.2511 2.04575 15.2491 1.3652 15.2466C1.22877 14.3664 1.28626 13.8145 1.77864 13.0613C2.82397 11.7534 4.44215 11.4666 5.90223 12.301Z" fill="#646464"/>
<path d="M4.96528 9.0066C5.30436 9.21005 5.40754 9.35603 5.51653 9.73316C5.60378 10.2315 5.59074 10.5082 5.38528 10.9791C5.01248 11.3612 4.77219 11.4539 4.24528 11.5266C3.71016 11.4217 3.3687 11.2498 3.04528 10.8066C2.91071 10.3222 2.89525 10.0533 3.06028 9.5766C3.56939 8.82991 4.13519 8.78473 4.96528 9.0066Z" fill="#646464"/>
</g>
<defs>
<clipPath id="clip0_919_124">
<rect width="24" height="24" fill="white" transform="translate(0 0.401306)"/>
</clipPath>
</defs>
</svg>
