<svg width="24" height="25" viewBox="0 0 24 25" fill="none" xmlns="http://www.w3.org/2000/svg">
<circle cx="12" cy="8.40131" r="4.25" stroke="#194BFB" stroke-width="1.5"/>
<path d="M13 17.4013L16 20.4013L20 13.4013" stroke="#194BFB" stroke-width="1.5" stroke-linecap="round" stroke-linejoin="round"/>
<path d="M10 20.9013C10.2761 20.9013 10.5 20.6774 10.5 20.4013C10.5 20.1252 10.2761 19.9013 10 19.9013V20.9013ZM10 19.9013H4.38095V20.9013H10V19.9013ZM11.619 12.9013H12V11.9013H11.619V12.9013ZM4.38095 19.9013C4.4467 19.9013 4.5 19.9546 4.5 20.0204H3.5C3.5 20.5069 3.89442 20.9013 4.38095 20.9013V19.9013ZM4.5 20.0204C4.5 16.0886 7.68731 12.9013 11.619 12.9013V11.9013C7.13502 11.9013 3.5 15.5363 3.5 20.0204H4.5Z" fill="#194BFB"/>
</svg>
